Coordinates
version=1
nRows=5
nColumns=63
inDegrees=yes

Units are S.I. units (second, meters, Newtons, ...)
If the header above contains a line with 'inDegrees', this indicates whether rotational values are in degrees (yes) or radians (no).

endheader
time	pelvis_tilt	pelvis_list	pelvis_rotation	pelvis_tx	pelvis_ty	pelvis_tz	hip_flexion_r	hip_adduction_r	hip_rotation_r	knee_angle_r	knee_angle_r_beta	ankle_angle_r	subtalar_angle_r	mtp_angle_r	hip_flexion_l	hip_adduction_l	hip_rotation_l	knee_angle_l	knee_angle_l_beta	ankle_angle_l	subtalar_angle_l	mtp_angle_l	L5_S1_Flex_Ext	L5_S1_Lat_Bending	L5_S1_axial_rotation	L4_L5_Flex_Ext	L4_L5_Lat_Bending	L4_L5_axial_rotation	L3_L4_Flex_Ext	L3_L4_Lat_Bending	L3_L4_axial_rotation	L2_L3_Flex_Ext	L2_L3_Lat_Bending	L2_L3_axial_rotation	L1_L2_Flex_Ext	L1_L2_Lat_Bending	L1_L2_axial_rotation	L1_T12_Flex_Ext	L1_T12_Lat_Bending	L1_T12_axial_rotation	Abs_r3	Abs_r2	Abs_r1	Abs_t1	Abs_t2	neck_flexion	neck_bending	neck_rotation	arm_flex_r	arm_add_r	arm_rot_r	elbow_flex_r	pro_sup_r	wrist_flex_r	wrist_dev_r	arm_flex_l	arm_add_l	arm_rot_l	elbow_flex_l	pro_sup_l	wrist_flex_l	wrist_dev_l
      1.28813559	      0.55374613	     -3.60001825	     85.60412034	      0.14652331	      1.11675109	      0.43395395	      6.18567490	     -0.68132780	      0.94434237	     12.23085552	      0.21346870	     36.55358738	      8.77181381	      0.00000000	      3.77885819	      2.61276656	     11.24683581	      6.36412099	      0.11107487	     35.26511789	    -10.63947752	      0.00000000	     -0.28968264	     -0.12575928	      0.97056213	     -0.53796963	     -0.16725984	      1.03122226	     -0.47591961	     -0.30577110	      1.03122226	     -0.33107829	     -0.30577110	      0.84924186	     -0.26899930	     -0.25644832	      0.78858173	     -0.16552466	     -0.19480112	      0.72792160	     -2.06917413	     -1.42261409	      5.39797538	      0.00000000	      0.00000000	     18.07867767	      1.07320249	      3.26313700	      9.60188649	    -11.63334287	     99.97361346	      9.77727591	      2.68164001	      2.47868685	    -13.73665150	     10.23346647	     -8.88283726	    144.47014697	      1.80134840	      5.73100190	    -11.40345916	     -7.95576648
      1.30508475	      0.85531464	     -3.54988977	     85.78489922	      0.14586941	      1.11743456	      0.43289841	      6.31642386	     -0.15631199	      2.98867778	     12.58250684	      0.21960617	     36.13734728	      5.45259704	      0.00000000	      3.77692662	      2.24542938	      9.95412159	      6.50428997	      0.11352128	     36.01794649	     -8.51517729	      0.00000000	     -0.28413870	     -0.10784375	      0.99484438	     -0.52767399	     -0.14343219	      1.05702216	     -0.46681148	     -0.26221130	      1.05702216	     -0.32474212	     -0.26221130	      0.87048884	     -0.26385120	     -0.21991498	      0.80831106	     -0.16235686	     -0.16704997	      0.74613329	     -2.02957434	     -1.21995008	      5.53302601	      0.00000000	      0.00000000	     17.88875826	      0.35397932	      1.84977283	      9.96467434	    -12.09573467	     95.54134809	     10.66229098	      3.44822469	      2.29661758	    -13.59062787	     10.53104605	     -8.99453099	    142.01985326	      1.66030709	      6.02533131	    -10.45995941	     -7.85596246
      1.32203390	      1.01783927	     -3.49585147	     85.87532875	      0.14529037	      1.11815168	      0.43190323	      6.55333962	      0.06654350	      3.54271683	     13.13896678	      0.22931823	     36.10274469	      4.27841843	      0.00000000	      3.72460815	      2.06669853	      9.55427232	      6.48502005	      0.11318495	     36.30041475	     -7.68237236	      0.00000000	     -0.27853748	     -0.10518677	      1.04141221	     -0.51727195	     -0.13989841	      1.10650047	     -0.45760922	     -0.25575112	      1.10650047	     -0.31834048	     -0.25575112	      0.91123568	     -0.25864990	     -0.21449687	      0.84614742	     -0.15915632	     -0.16293431	      0.78105916	     -1.98956536	     -1.18989383	      5.79202228	      0.00000000	      0.00000000	     17.71928839	     -0.31731694	      0.47992924	     10.53272155	    -12.16994135	     94.79246928	     10.55390711	      3.27420827	      2.25247207	    -13.37832663	     10.80886709	     -9.07939693	    139.32237797	      1.58493699	      4.89196480	     -9.22580445	     -8.23254980
      1.33898305	      1.09432757	     -3.37572933	     85.78323455	      0.14509803	      1.11901030	      0.43086973	      6.73561227	      0.28916029	      4.83269294	     13.69670320	      0.23905257	     35.91091338	      2.36368136	      0.00000000	      3.61256725	      1.96189370	      8.85778556	      6.46156160	      0.11277552	     36.61068324	     -6.66861690	      0.00000000	     -0.28015398	     -0.11420374	      1.12701795	     -0.52027395	     -0.15189097	      1.19745657	     -0.46026497	     -0.27767497	      1.19745657	     -0.32018798	     -0.27767497	      0.98614070	     -0.26015098	     -0.23288427	      0.91570208	     -0.16007998	     -0.17690159	      0.84526346	     -2.00111183	     -1.29189555	      6.26813571	      0.00000000	      0.00000000	     17.42762365	     -0.77020419	     -0.88716139	     11.15534507	    -12.08637120	     94.84847314	     10.20045653	      3.03973380	      2.00993930	    -12.78595546	     11.13441905	     -9.10951412	    135.36250584	      1.65169379	      4.38982487	     -8.22301223	     -8.81526725
      1.35593220	      1.09710937	     -3.22500555	     85.69398452	      0.14497961	      1.11993696	      0.42978272	      6.91459790	      0.33103713	      5.18421008	     14.26627066	      0.24899339	     36.00136528	      1.79244309	      0.00000000	      3.46898366	      1.96819834	      8.75174599	      6.41448630	      0.11195391	     36.70943849	     -6.43131509	      0.00000000	     -0.28313034	     -0.13130160	      1.23537082	     -0.52580136	     -0.17463113	      1.31258150	     -0.46515484	     -0.31924672	      1.31258150	     -0.32358967	     -0.31924672	      1.08094947	     -0.26291484	     -0.26775023	      1.00373879	     -0.16178068	     -0.20338619	      0.92652811	     -2.02237174	     -1.48531001	      6.87076188	      0.00000000	      0.00000000	     17.05801704	     -1.00127553	     -2.31208548	     11.73958241	    -11.89747110	     95.41353057	      9.62551756	      2.99017335	      1.61498805	    -11.67511557	     11.61770291	     -9.06916738	    133.63637388	      1.63256931	      3.16683801	     -7.65172987	     -9.27321301
